<?xml version="1.0" encoding="us-ascii" standalone="no"?><svg xmlns="http://www.w3.org/2000/svg" xmlns:xlink="http://www.w3.org/1999/xlink" contentStyleType="text/css" height="373px" preserveAspectRatio="none" style="width:559px;height:373px;background:#FFFFFF;" version="1.1" viewBox="0 0 559 373" width="559px" zoomAndPan="magnify"><defs/><g><line style="stroke:#000000;stroke-width:0.5;stroke-dasharray:5.0,5.0;" x1="42" x2="42" y1="78.9688" y2="294.75"/><line style="stroke:#000000;stroke-width:0.5;stroke-dasharray:5.0,5.0;" x1="116.5" x2="116.5" y1="78.9688" y2="294.75"/><line style="stroke:#000000;stroke-width:0.5;stroke-dasharray:5.0,5.0;" x1="176.5" x2="176.5" y1="78.9688" y2="294.75"/><line style="stroke:#000000;stroke-width:0.5;stroke-dasharray:5.0,5.0;" x1="242.5" x2="242.5" y1="78.9688" y2="294.75"/><line style="stroke:#000000;stroke-width:0.5;stroke-dasharray:5.0,5.0;" x1="296.5" x2="296.5" y1="78.9688" y2="294.75"/><line style="stroke:#000000;stroke-width:0.5;stroke-dasharray:5.0,5.0;" x1="356.5" x2="356.5" y1="78.9688" y2="294.75"/><line style="stroke:#000000;stroke-width:0.5;stroke-dasharray:5.0,5.0;" x1="440.5" x2="440.5" y1="78.9688" y2="294.75"/><line style="stroke:#000000;stroke-width:0.5;stroke-dasharray:5.0,5.0;" x1="522.5" x2="522.5" y1="78.9688" y2="294.75"/><rect fill="#FFFFFF" height="27.9688" rx="2.5" ry="2.5" style="stroke:#000000;stroke-width:0.5;" width="75" x="5" y="50"/><text fill="#000000" font-family="Helvetica" font-size="12" lengthAdjust="spacing" textLength="61" x="12" y="68.1387">Participant</text><rect fill="#FFFFFF" height="27.9688" rx="2.5" ry="2.5" style="stroke:#000000;stroke-width:0.5;" width="75" x="5" y="293.75"/><text fill="#000000" font-family="Helvetica" font-size="12" lengthAdjust="spacing" textLength="61" x="12" y="311.8887">Participant</text><text fill="#000000" font-family="Helvetica" font-size="12" lengthAdjust="spacing" textLength="32" x="97.5" y="76.1387">Actor</text><ellipse cx="116.5" cy="13.5" fill="#FFFFFF" rx="8" ry="8" style="stroke:#000000;stroke-width:0.5;"/><path d="M116.5,21.5 L116.5,48.5 M103.5,29.5 L129.5,29.5 M116.5,48.5 L103.5,63.5 M116.5,48.5 L129.5,63.5 " fill="none" style="stroke:#000000;stroke-width:0.5;"/><text fill="#000000" font-family="Helvetica" font-size="12" lengthAdjust="spacing" textLength="32" x="97.5" y="304.8887">Actor</text><ellipse cx="116.5" cy="316.2188" fill="#FFFFFF" rx="8" ry="8" style="stroke:#000000;stroke-width:0.5;"/><path d="M116.5,324.2188 L116.5,351.2188 M103.5,332.2188 L129.5,332.2188 M116.5,351.2188 L103.5,366.2188 M116.5,351.2188 L129.5,366.2188 " fill="none" style="stroke:#000000;stroke-width:0.5;"/><text fill="#000000" font-family="Helvetica" font-size="12" lengthAdjust="spacing" textLength="57" x="145.5" y="76.1387">Boundary</text><path d="M156.5,37 L156.5,61 M156.5,49 L173.5,49 " fill="none" style="stroke:#181818;stroke-width:0.5;"/><ellipse cx="185.5" cy="49" fill="#E3E3E3" rx="12" ry="12" style="stroke:#181818;stroke-width:0.5;"/><text fill="#000000" font-family="Helvetica" font-size="12" lengthAdjust="spacing" textLength="57" x="145.5" y="304.8887">Boundary</text><path d="M156.5,311.7188 L156.5,335.7188 M156.5,323.7188 L173.5,323.7188 " fill="none" style="stroke:#181818;stroke-width:0.5;"/><ellipse cx="185.5" cy="323.7188" fill="#E3E3E3" rx="12" ry="12" style="stroke:#181818;stroke-width:0.5;"/><text fill="#000000" font-family="Helvetica" font-size="12" lengthAdjust="spacing" textLength="43" x="218.5" y="76.1387">Control</text><ellipse cx="243" cy="49" fill="#E3E3E3" rx="12" ry="12" style="stroke:#181818;stroke-width:0.5;"/><polygon fill="#181818" points="239,37,245,32,243,37,245,42,239,37" style="stroke:#181818;stroke-width:1.0;"/><text fill="#000000" font-family="Helvetica" font-size="12" lengthAdjust="spacing" textLength="43" x="218.5" y="304.8887">Control</text><ellipse cx="243" cy="323.7188" fill="#E3E3E3" rx="12" ry="12" style="stroke:#181818;stroke-width:0.5;"/><polygon fill="#181818" points="239,311.7188,245,306.7188,243,311.7188,245,316.7188,239,311.7188" style="stroke:#181818;stroke-width:1.0;"/><text fill="#000000" font-family="Helvetica" font-size="12" lengthAdjust="spacing" textLength="32" x="277.5" y="76.1387">Entity</text><ellipse cx="296.5" cy="49" fill="#E3E3E3" rx="12" ry="12" style="stroke:#181818;stroke-width:0.5;"/><line style="stroke:#181818;stroke-width:0.5;" x1="284.5" x2="308.5" y1="63" y2="63"/><text fill="#000000" font-family="Helvetica" font-size="12" lengthAdjust="spacing" textLength="32" x="277.5" y="304.8887">Entity</text><ellipse cx="296.5" cy="323.7188" fill="#E3E3E3" rx="12" ry="12" style="stroke:#181818;stroke-width:0.5;"/><line style="stroke:#181818;stroke-width:0.5;" x1="284.5" x2="308.5" y1="337.7188" y2="337.7188"/><text fill="#000000" font-family="Helvetica" font-size="12" lengthAdjust="spacing" textLength="57" x="325.5" y="76.1387">Database</text><path d="M339,29 C339,19 357,19 357,19 C357,19 375,19 375,29 L375,55 C375,65 357,65 357,65 C357,65 339,65 339,55 L339,29 " fill="#E3E3E3" style="stroke:#181818;stroke-width:1.5;"/><path d="M339,29 C339,39 357,39 357,39 C357,39 375,39 375,29 " fill="none" style="stroke:#181818;stroke-width:1.5;"/><text fill="#000000" font-family="Helvetica" font-size="12" lengthAdjust="spacing" textLength="57" x="325.5" y="304.8887">Database</text><path d="M339,317.7188 C339,307.7188 357,307.7188 357,307.7188 C357,307.7188 375,307.7188 375,317.7188 L375,343.7188 C375,353.7188 357,353.7188 357,353.7188 C357,353.7188 339,353.7188 339,343.7188 L339,317.7188 " fill="#E3E3E3" style="stroke:#181818;stroke-width:1.5;"/><path d="M339,317.7188 C339,327.7188 357,327.7188 357,327.7188 C357,327.7188 375,327.7188 375,317.7188 " fill="none" style="stroke:#181818;stroke-width:1.5;"/><rect fill="#E3E3E3" height="27.9688" style="stroke:#181818;stroke-width:0.5;" width="80" x="402.5" y="46"/><rect fill="#E3E3E3" height="27.9688" style="stroke:#181818;stroke-width:0.5;" width="80" x="398.5" y="50"/><text fill="#000000" font-family="Helvetica" font-size="12" lengthAdjust="spacing" textLength="66" x="405.5" y="68.1387">Collections</text><rect fill="#E3E3E3" height="27.9688" style="stroke:#181818;stroke-width:0.5;" width="80" x="402.5" y="293.75"/><rect fill="#E3E3E3" height="27.9688" style="stroke:#181818;stroke-width:0.5;" width="80" x="398.5" y="297.75"/><text fill="#000000" font-family="Helvetica" font-size="12" lengthAdjust="spacing" textLength="66" x="405.5" y="315.8887">Collections</text><path d="M497.5,55 L547.5,55 C552.5,55 552.5,66.9844 552.5,66.9844 C552.5,66.9844 552.5,78.9688 547.5,78.9688 L497.5,78.9688 C492.5,78.9688 492.5,66.9844 492.5,66.9844 C492.5,66.9844 492.5,55 497.5,55 " fill="#E3E3E3" style="stroke:#181818;stroke-width:0.5;"/><path d="M547.5,55 C542.5,55 542.5,66.9844 542.5,66.9844 C542.5,78.9688 547.5,78.9688 547.5,78.9688 " fill="none" style="stroke:#181818;stroke-width:0.5;"/><text fill="#000000" font-family="Helvetica" font-size="12" lengthAdjust="spacing" textLength="40" x="497.5" y="71.1387">Queue</text><path d="M497.5,293.75 L547.5,293.75 C552.5,293.75 552.5,305.7344 552.5,305.7344 C552.5,305.7344 552.5,317.7188 547.5,317.7188 L497.5,317.7188 C492.5,317.7188 492.5,305.7344 492.5,305.7344 C492.5,305.7344 492.5,293.75 497.5,293.75 " fill="#E3E3E3" style="stroke:#181818;stroke-width:0.5;"/><path d="M547.5,293.75 C542.5,293.75 542.5,305.7344 542.5,305.7344 C542.5,317.7188 547.5,317.7188 547.5,317.7188 " fill="none" style="stroke:#181818;stroke-width:0.5;"/><text fill="#000000" font-family="Helvetica" font-size="12" lengthAdjust="spacing" textLength="40" x="497.5" y="309.8887">Queue</text><polygon fill="#000000" points="104.5,104.9375,114.5,108.9375,104.5,112.9375,108.5,108.9375" style="stroke:#000000;stroke-width:1.0;"/><line style="stroke:#000000;stroke-width:1.0;" x1="42.5" x2="110.5" y1="108.9375" y2="108.9375"/><text fill="#000000" font-family="Helvetica" font-size="12" lengthAdjust="spacing" textLength="50" x="54.5" y="104.1074">To actor</text><polygon fill="#000000" points="165,132.9063,175,136.9063,165,140.9063,169,136.9063" style="stroke:#000000;stroke-width:1.0;"/><line style="stroke:#000000;stroke-width:1.0;" x1="42.5" x2="171" y1="136.9063" y2="136.9063"/><text fill="#000000" font-family="Helvetica" font-size="12" lengthAdjust="spacing" textLength="76" x="71.75" y="132.0762">To boundary</text><polygon fill="#000000" points="231,160.875,241,164.875,231,168.875,235,164.875" style="stroke:#000000;stroke-width:1.0;"/><line style="stroke:#000000;stroke-width:1.0;" x1="42.5" x2="237" y1="164.875" y2="164.875"/><text fill="#000000" font-family="Helvetica" font-size="12" lengthAdjust="spacing" textLength="61" x="112.25" y="160.0449">To control</text><polygon fill="#000000" points="284.5,188.8438,294.5,192.8438,284.5,196.8438,288.5,192.8438" style="stroke:#000000;stroke-width:1.0;"/><line style="stroke:#000000;stroke-width:1.0;" x1="42.5" x2="290.5" y1="192.8438" y2="192.8438"/><text fill="#000000" font-family="Helvetica" font-size="12" lengthAdjust="spacing" textLength="52" x="143.5" y="188.0137">To entity</text><polygon fill="#000000" points="345,216.8125,355,220.8125,345,224.8125,349,220.8125" style="stroke:#000000;stroke-width:1.0;"/><line style="stroke:#000000;stroke-width:1.0;" x1="42.5" x2="351" y1="220.8125" y2="220.8125"/><text fill="#000000" font-family="Helvetica" font-size="12" lengthAdjust="spacing" textLength="75" x="162.25" y="215.9824">To database</text><polygon fill="#000000" points="428.5,244.7813,438.5,248.7813,428.5,252.7813,432.5,248.7813" style="stroke:#000000;stroke-width:1.0;"/><line style="stroke:#000000;stroke-width:1.0;" x1="42.5" x2="434.5" y1="248.7813" y2="248.7813"/><text fill="#000000" font-family="Helvetica" font-size="12" lengthAdjust="spacing" textLength="84" x="199.5" y="243.9512">To collections</text><polygon fill="#000000" points="510.5,272.75,520.5,276.75,510.5,280.75,514.5,276.75" style="stroke:#000000;stroke-width:1.0;"/><line style="stroke:#000000;stroke-width:1.0;" x1="42.5" x2="516.5" y1="276.75" y2="276.75"/><text fill="#000000" font-family="Helvetica" font-size="12" lengthAdjust="spacing" textLength="57" x="254" y="271.9199">To queue</text><!--SRC=[jLHBRzim33vNlqAtdD8WwGleOK3IhjY0hjsm03lB2cshaKLFejjvnVxxQAjUb24hcctLmI2-Zs-J7CaS_Lhc7YjP4jNXV38f39LDTgYncbIAg8I7EmnGbwHQYtvIM-MegUmuK6jXabdCM2yG-4cF7DQD6CaRf75Js5OEwh8dvGforLWAGeIrSRNogXgmAtHqeogGxy3U0ncjTkjyDjz1JcS96U1h0qx31mX15J2tfd1IW-ES4gqA7UgIAmL9le7KlbGhV32kaBco0TBSb2PpRwYLZ-9WxZq-N20tGIwiqcjniE1luR5ngmX_AGq1m-XNuBSrUsXP6hrsdAMSYX-_XM7TnpqyRfat0RGAyCf9QgiOV8qOIH3Cxa3JFqRPIhjcXATYt-wEbhUNjxARQq1gwwsfuDseqV60FUFqVJT-kTBmyjviJ9wlo271tmzB84NmFniyhDzUFZygpojkQhuEBs_GjSdXshWT_TdojslgldLsVop139tVjwtr9gnCKf0go2j44VSwldaYHtegiYwAycs7BH8vyZEX-TvvjBtDHI97_aZm27R7gNzl4pdonsAbI6NTPU1tcSYHFs7_rlAw6NI1_M_ao9yA_h4DFENyAP4ZVoRu8yTl-bhakLnYF6G9F8lmK6V274NcgSA4E8v4B2t1Jo8-b9GmfuEhNmKav5dFzONy1000]--></g></svg>