<?xml version="1.0" encoding="us-ascii" standalone="no"?><svg xmlns="http://www.w3.org/2000/svg" xmlns:xlink="http://www.w3.org/1999/xlink" contentStyleType="text/css" height="389px" preserveAspectRatio="none" style="width:614px;height:389px;background:#FFFFFF;" version="1.1" viewBox="0 0 614 389" width="614px" zoomAndPan="magnify"><defs/><g><!--class abstract--><g id="elem_abstract"><rect codeLine="83" fill="#FFFFFF" height="46" id="abstract" rx="2.5" ry="2.5" style="stroke:#000000;stroke-width:1.0;" width="80" x="15.5" y="7"/><ellipse cx="29.5" cy="22" fill="#CDCDCD" rx="10" ry="10" style="stroke:#181818;stroke-width:1.0;"/><path d="M30.9844,23.1094 L31.2656,23.7969 L30.9844,23.7969 C30.6875,23.7969 30.5938,23.8125 30.4844,23.8906 C30.3125,23.9844 30.2031,24.2031 30.2031,24.4063 C30.2031,24.5938 30.2969,24.7656 30.4531,24.875 C30.5625,24.9688 30.7031,25 30.9844,25 L32.6563,25 C32.9063,25 33.0625,24.9688 33.1563,24.9219 C33.3438,24.8125 33.4531,24.6094 33.4531,24.4063 C33.4531,24.2031 33.3594,24.0313 33.2031,23.9219 C33.0781,23.8281 32.9688,23.7969 32.6406,23.7969 L30.25,18 L27.6563,18 C27.3281,18 27.25,18.0156 27.1406,18.0938 C26.9531,18.2031 26.8594,18.4063 26.8594,18.6094 C26.8594,18.7969 26.9531,18.9688 27.1094,19.0938 C27.2188,19.1875 27.3438,19.2031 27.6563,19.2031 L28.4063,19.2031 L26.5469,23.7969 C26.25,23.7969 26.1406,23.8125 26.0313,23.8906 C25.8594,23.9844 25.75,24.2031 25.75,24.4063 C25.75,24.7969 26.0156,25 26.5469,25 L28.1406,25 C28.3906,25 28.5469,24.9688 28.6406,24.9219 C28.8125,24.8125 28.9219,24.6094 28.9219,24.4063 C28.9219,24.2031 28.8281,24.0313 28.6719,23.9063 C28.5625,23.8281 28.4531,23.7969 28.1406,23.7969 L27.8594,23.7969 L28.1406,23.1094 L30.9844,23.1094 Z M30.5,21.9063 L28.6094,21.9063 L29.5625,19.5938 L30.5,21.9063 Z " fill="#000000"/><text fill="#000000" font-family="Helvetica" font-size="12" font-style="italic" lengthAdjust="spacing" textLength="50" x="42.5" y="26.1543">abstract</text><line style="stroke:#000000;stroke-width:1.0;" x1="16.5" x2="94.5" y1="37" y2="37"/><line style="stroke:#000000;stroke-width:1.0;" x1="16.5" x2="94.5" y1="45" y2="45"/></g><!--class abstract class--><g id="elem_abstract class"><rect codeLine="84" fill="#FFFFFF" height="46" id="abstract class" rx="2.5" ry="2.5" style="stroke:#000000;stroke-width:1.0;" width="113" x="131" y="7"/><ellipse cx="145" cy="22" fill="#CDCDCD" rx="10" ry="10" style="stroke:#181818;stroke-width:1.0;"/><path d="M146.4844,23.1094 L146.7656,23.7969 L146.4844,23.7969 C146.1875,23.7969 146.0938,23.8125 145.9844,23.8906 C145.8125,23.9844 145.7031,24.2031 145.7031,24.4063 C145.7031,24.5938 145.7969,24.7656 145.9531,24.875 C146.0625,24.9688 146.2031,25 146.4844,25 L148.1563,25 C148.4063,25 148.5625,24.9688 148.6563,24.9219 C148.8438,24.8125 148.9531,24.6094 148.9531,24.4063 C148.9531,24.2031 148.8594,24.0313 148.7031,23.9219 C148.5781,23.8281 148.4688,23.7969 148.1406,23.7969 L145.75,18 L143.1563,18 C142.8281,18 142.75,18.0156 142.6406,18.0938 C142.4531,18.2031 142.3594,18.4063 142.3594,18.6094 C142.3594,18.7969 142.4531,18.9688 142.6094,19.0938 C142.7188,19.1875 142.8438,19.2031 143.1563,19.2031 L143.9063,19.2031 L142.0469,23.7969 C141.75,23.7969 141.6406,23.8125 141.5313,23.8906 C141.3594,23.9844 141.25,24.2031 141.25,24.4063 C141.25,24.7969 141.5156,25 142.0469,25 L143.6406,25 C143.8906,25 144.0469,24.9688 144.1406,24.9219 C144.3125,24.8125 144.4219,24.6094 144.4219,24.4063 C144.4219,24.2031 144.3281,24.0313 144.1719,23.9063 C144.0625,23.8281 143.9531,23.7969 143.6406,23.7969 L143.3594,23.7969 L143.6406,23.1094 L146.4844,23.1094 Z M146,21.9063 L144.1094,21.9063 L145.0625,19.5938 L146,21.9063 Z " fill="#000000"/><text fill="#000000" font-family="Helvetica" font-size="12" font-style="italic" lengthAdjust="spacing" textLength="83" x="158" y="26.1543">abstract class</text><line style="stroke:#000000;stroke-width:1.0;" x1="132" x2="243" y1="37" y2="37"/><line style="stroke:#000000;stroke-width:1.0;" x1="132" x2="243" y1="45" y2="45"/></g><!--class annotation--><g id="elem_annotation"><rect codeLine="85" fill="#FFFFFF" height="46" id="annotation" rx="2.5" ry="2.5" style="stroke:#000000;stroke-width:1.0;" width="92" x="279.5" y="7"/><ellipse cx="293.5" cy="22" fill="#888888" rx="10" ry="10" style="stroke:#181818;stroke-width:1.0;"/><path d="M294.3906,19.7344 C293.0469,19.8281 292.1094,20.6719 292.1094,21.7813 C292.1094,22.7813 292.9688,23.6406 293.9844,23.6406 C294.0938,23.6406 294.2031,23.625 294.3906,23.5938 L294.3906,23.6406 L294.9531,23.6406 C295.3906,23.6406 295.6094,23.4844 295.6094,23.1406 C295.6094,22.9375 295.5313,22.8125 295.3281,22.7188 L295.3281,19.3594 C295.3281,18.0156 294.4063,17.0625 293.1094,17.0625 C291.5469,17.0625 290.4063,18.5625 290.4063,20.625 L290.4063,22.6563 C290.4063,23.5313 290.6094,24.3906 290.9688,25.0469 C291.4844,25.9219 292.1406,26.3281 293.125,26.3281 C294.2656,26.3281 295.25,25.8594 295.25,25.2969 C295.25,25.0156 295.0313,24.7969 294.7656,24.7969 C294.625,24.7969 294.5625,24.8438 294.3906,25 C294.1719,25.25 293.6875,25.3906 293.1563,25.3906 C292.625,25.3906 292.2656,25.2031 291.9688,24.7813 C291.5625,24.2188 291.3594,23.4844 291.3594,22.5625 L291.3594,20.7031 C291.3594,19.1563 292.1094,18.0156 293.125,18.0156 C293.875,18.0156 294.3906,18.5625 294.3906,19.3594 L294.3906,19.7344 Z M294.3906,22.6406 C294.2188,22.6563 294.1563,22.6563 294.0781,22.6563 C293.5,22.6563 293.0625,22.2969 293.0625,21.7969 C293.0625,21.2188 293.5938,20.7813 294.3906,20.7031 L294.3906,22.6406 Z " fill="#000000"/><text fill="#000000" font-family="Helvetica" font-size="12" lengthAdjust="spacing" textLength="62" x="306.5" y="26.1543">annotation</text><line style="stroke:#000000;stroke-width:1.0;" x1="280.5" x2="370.5" y1="37" y2="37"/><line style="stroke:#000000;stroke-width:1.0;" x1="280.5" x2="370.5" y1="45" y2="45"/></g><!--entity circle--><g id="elem_circle"><ellipse cx="433.5" cy="30" fill="#FFFFFF" rx="8" ry="8" style="stroke:#000000;stroke-width:0.5;"/><text fill="#000000" font-family="Helvetica" font-size="12" lengthAdjust="spacing" textLength="33" x="417" y="58.1387">circle</text></g><!--entity circle_short_form--><g id="elem_circle_short_form"><ellipse cx="555.5" cy="30" fill="#FFFFFF" rx="8" ry="8" style="stroke:#000000;stroke-width:0.5;"/><text fill="#000000" font-family="Helvetica" font-size="12" lengthAdjust="spacing" textLength="104" x="503.5" y="58.1387">circle_short_form</text></g><!--class class--><g id="elem_class"><rect codeLine="88" fill="#FFFFFF" height="46" id="class" rx="2.5" ry="2.5" style="stroke:#000000;stroke-width:1.0;" width="61" x="25" y="120"/><ellipse cx="39" cy="135" fill="#C2C2C2" rx="10" ry="10" style="stroke:#181818;stroke-width:1.0;"/><path d="M40.8594,131.75 C40.2031,131.4375 39.7813,131.3438 39.1563,131.3438 C37.3125,131.3438 35.8906,132.7969 35.8906,134.7188 L35.8906,135.5156 C35.8906,137.3438 37.3906,138.6719 39.4219,138.6719 C40.2813,138.6719 41.1094,138.4531 41.625,138.0625 C42.0469,137.7813 42.2656,137.4688 42.2656,137.1875 C42.2656,136.875 41.9844,136.5938 41.6719,136.5938 C41.5156,136.5938 41.375,136.6563 41.2344,136.7813 C40.9063,137.125 40.9063,137.125 40.7813,137.1875 C40.4844,137.375 40,137.4688 39.4531,137.4688 C38.0156,137.4688 37.0938,136.6875 37.0938,135.4844 L37.0938,134.7188 C37.0938,133.4531 37.9844,132.5313 39.2031,132.5313 C39.6094,132.5313 40.0469,132.6406 40.375,132.8281 C40.7188,133.0156 40.8438,133.1719 40.9063,133.4531 C40.9531,133.75 40.9688,133.8281 41.0625,133.9219 C41.1563,134.0313 41.3281,134.0938 41.4844,134.0938 C41.6875,134.0938 41.8594,134 41.9844,133.8438 C42.0625,133.7344 42.0938,133.6094 42.0938,133.2969 L42.0938,132.2969 C42.0938,132 42.0781,131.9063 42,131.7969 C41.8906,131.6094 41.7031,131.5 41.4844,131.5 C41.2813,131.5 41.1406,131.5781 40.9844,131.7969 L40.8594,131.75 Z " fill="#000000"/><text fill="#000000" font-family="Helvetica" font-size="12" lengthAdjust="spacing" textLength="31" x="52" y="139.1543">class</text><line style="stroke:#000000;stroke-width:1.0;" x1="26" x2="85" y1="150" y2="150"/><line style="stroke:#000000;stroke-width:1.0;" x1="26" x2="85" y1="158" y2="158"/></g><!--class class_stereo--><g id="elem_class_stereo"><rect codeLine="89" fill="#FFFFFF" height="53.9375" id="class_stereo" rx="2.5" ry="2.5" style="stroke:#000000;stroke-width:1.0;" width="107" x="121" y="116"/><ellipse cx="135" cy="134.9688" fill="#C2C2C2" rx="10" ry="10" style="stroke:#181818;stroke-width:1.0;"/><path d="M136.8594,131.7188 C136.2031,131.4063 135.7813,131.3125 135.1563,131.3125 C133.3125,131.3125 131.8906,132.7656 131.8906,134.6875 L131.8906,135.4844 C131.8906,137.3125 133.3906,138.6406 135.4219,138.6406 C136.2813,138.6406 137.1094,138.4219 137.625,138.0313 C138.0469,137.75 138.2656,137.4375 138.2656,137.1563 C138.2656,136.8438 137.9844,136.5625 137.6719,136.5625 C137.5156,136.5625 137.375,136.625 137.2344,136.75 C136.9063,137.0938 136.9063,137.0938 136.7813,137.1563 C136.4844,137.3438 136,137.4375 135.4531,137.4375 C134.0156,137.4375 133.0938,136.6563 133.0938,135.4531 L133.0938,134.6875 C133.0938,133.4219 133.9844,132.5 135.2031,132.5 C135.6094,132.5 136.0469,132.6094 136.375,132.7969 C136.7188,132.9844 136.8438,133.1406 136.9063,133.4219 C136.9531,133.7188 136.9688,133.7969 137.0625,133.8906 C137.1563,134 137.3281,134.0625 137.4844,134.0625 C137.6875,134.0625 137.8594,133.9688 137.9844,133.8125 C138.0625,133.7031 138.0938,133.5781 138.0938,133.2656 L138.0938,132.2656 C138.0938,131.9688 138.0781,131.875 138,131.7656 C137.8906,131.5781 137.7031,131.4688 137.4844,131.4688 C137.2813,131.4688 137.1406,131.5469 136.9844,131.7656 L136.8594,131.7188 Z " fill="#000000"/><text fill="#000000" font-family="Helvetica" font-size="12" font-style="italic" lengthAdjust="spacing" textLength="78" x="147.5" y="132.1387">&#171;stereotype&#187;</text><text fill="#000000" font-family="Helvetica" font-size="12" lengthAdjust="spacing" textLength="77" x="148" y="146.1074">class_stereo</text><line style="stroke:#000000;stroke-width:1.0;" x1="122" x2="227" y1="153.9375" y2="153.9375"/><line style="stroke:#000000;stroke-width:1.0;" x1="122" x2="227" y1="161.9375" y2="161.9375"/></g><g id="elem_diamond"><polygon fill="#FFFFFF" points="275.5,131,287.5,143,275.5,155,263.5,143,275.5,131" style="stroke:#000000;stroke-width:1.0;"/></g><polygon fill="#F1F1F1" points="334.5,131,346.5,143,334.5,155,322.5,143,334.5,131" style="stroke:#181818;stroke-width:0.5;"/><!--class entity--><g id="elem_entity"><rect codeLine="92" fill="#FFFFFF" height="46" id="entity" rx="2.5" ry="2.5" style="stroke:#000000;stroke-width:1.0;" width="63" x="382" y="120"/><ellipse cx="396" cy="135" fill="#C2C2C2" rx="10" ry="10" style="stroke:#181818;stroke-width:1.0;"/><path d="M395.3281,135.5781 L396.3438,135.5781 L396.3438,135.6719 C396.3438,135.9531 396.375,136.0625 396.4375,136.1719 C396.5469,136.3594 396.75,136.4531 396.9531,136.4531 C397.125,136.4531 397.3125,136.3594 397.4219,136.2031 C397.5156,136.0938 397.5313,135.9844 397.5313,135.6719 L397.5313,134.3125 C397.5313,134.2031 397.5313,134.1719 397.5313,134.0625 C397.4688,133.7188 397.2656,133.5156 396.9375,133.5156 C396.75,133.5156 396.5781,133.6094 396.4531,133.7656 C396.375,133.875 396.3438,133.9844 396.3438,134.3125 L396.3438,134.3906 L395.3281,134.3906 L395.3281,132.7031 L398.1406,132.7031 L398.1406,133.2969 C398.1406,133.5938 398.1563,133.7188 398.2188,133.8125 C398.3438,134 398.5313,134.1094 398.7344,134.1094 C398.9219,134.1094 399.1094,134.0156 399.2344,133.8594 C399.3125,133.7344 399.3438,133.6406 399.3438,133.2969 L399.3438,131.5 L393.9531,131.5 C393.6406,131.5 393.5469,131.5156 393.4375,131.5938 C393.2656,131.7031 393.1563,131.9063 393.1563,132.1094 C393.1563,132.2969 393.25,132.4688 393.4063,132.5938 C393.5156,132.6875 393.6406,132.7031 393.9531,132.7031 L394.125,132.7031 L394.125,137.2969 L393.9531,137.2969 C393.6563,137.2969 393.5469,137.3125 393.4375,137.3906 C393.2656,137.5 393.1563,137.7031 393.1563,137.9063 C393.1563,138.0938 393.25,138.2656 393.4063,138.375 C393.5,138.4688 393.6719,138.5 393.9531,138.5 L399.5938,138.5 L399.5938,136.6719 C399.5938,136.375 399.5781,136.2656 399.5156,136.1563 C399.3906,135.9844 399.2031,135.875 399,135.875 C398.8125,135.875 398.625,135.9531 398.5156,136.125 C398.4219,136.25 398.4063,136.3438 398.4063,136.6719 L398.4063,137.2969 L395.3281,137.2969 L395.3281,135.5781 Z " fill="#000000"/><text fill="#000000" font-family="Helvetica" font-size="12" lengthAdjust="spacing" textLength="33" x="409" y="139.1543">entity</text><line style="stroke:#000000;stroke-width:1.0;" x1="383" x2="444" y1="150" y2="150"/><line style="stroke:#000000;stroke-width:1.0;" x1="383" x2="444" y1="158" y2="158"/></g><!--class enum--><g id="elem_enum"><rect codeLine="93" fill="#FFFFFF" height="46" id="enum" rx="2.5" ry="2.5" style="stroke:#000000;stroke-width:1.0;" width="63" x="24" y="230"/><ellipse cx="38" cy="245" fill="#ABABAB" rx="10" ry="10" style="stroke:#181818;stroke-width:1.0;"/><path d="M37.3281,245.5781 L38.3438,245.5781 L38.3438,245.6719 C38.3438,245.9531 38.375,246.0625 38.4375,246.1719 C38.5469,246.3594 38.75,246.4531 38.9531,246.4531 C39.125,246.4531 39.3125,246.3594 39.4219,246.2031 C39.5156,246.0938 39.5313,245.9844 39.5313,245.6719 L39.5313,244.3125 C39.5313,244.2031 39.5313,244.1719 39.5313,244.0625 C39.4688,243.7188 39.2656,243.5156 38.9375,243.5156 C38.75,243.5156 38.5781,243.6094 38.4531,243.7656 C38.375,243.875 38.3438,243.9844 38.3438,244.3125 L38.3438,244.3906 L37.3281,244.3906 L37.3281,242.7031 L40.1406,242.7031 L40.1406,243.2969 C40.1406,243.5938 40.1563,243.7188 40.2188,243.8125 C40.3438,244 40.5313,244.1094 40.7344,244.1094 C40.9219,244.1094 41.1094,244.0156 41.2344,243.8594 C41.3125,243.7344 41.3438,243.6406 41.3438,243.2969 L41.3438,241.5 L35.9531,241.5 C35.6406,241.5 35.5469,241.5156 35.4375,241.5938 C35.2656,241.7031 35.1563,241.9063 35.1563,242.1094 C35.1563,242.2969 35.25,242.4688 35.4063,242.5938 C35.5156,242.6875 35.6406,242.7031 35.9531,242.7031 L36.125,242.7031 L36.125,247.2969 L35.9531,247.2969 C35.6563,247.2969 35.5469,247.3125 35.4375,247.3906 C35.2656,247.5 35.1563,247.7031 35.1563,247.9063 C35.1563,248.0938 35.25,248.2656 35.4063,248.375 C35.5,248.4688 35.6719,248.5 35.9531,248.5 L41.5938,248.5 L41.5938,246.6719 C41.5938,246.375 41.5781,246.2656 41.5156,246.1563 C41.3906,245.9844 41.2031,245.875 41,245.875 C40.8125,245.875 40.625,245.9531 40.5156,246.125 C40.4219,246.25 40.4063,246.3438 40.4063,246.6719 L40.4063,247.2969 L37.3281,247.2969 L37.3281,245.5781 Z " fill="#000000"/><text fill="#000000" font-family="Helvetica" font-size="12" lengthAdjust="spacing" textLength="33" x="51" y="249.1543">enum</text><line style="stroke:#000000;stroke-width:1.0;" x1="25" x2="86" y1="260" y2="260"/><line style="stroke:#000000;stroke-width:1.0;" x1="25" x2="86" y1="268" y2="268"/></g><!--class exception--><g id="elem_exception"><rect codeLine="94" fill="#FFFFFF" height="46" id="exception" rx="2.5" ry="2.5" style="stroke:#000000;stroke-width:1.0;" width="90" x="122.5" y="230"/><ellipse cx="136.5" cy="245" fill="#6B6B6B" rx="10" ry="10" style="stroke:#181818;stroke-width:1.0;"/><path d="M137.375,244.9375 L139.25,242.7031 C139.6719,242.6875 139.9375,242.4688 139.9375,242.1094 C139.9375,241.9063 139.8594,241.7344 139.6875,241.6094 C139.5625,241.5313 139.4688,241.5 139.1406,241.5 L138.0625,241.5 C137.7969,241.5 137.6094,241.5469 137.5156,241.625 C137.3594,241.7344 137.2656,241.9219 137.2656,242.1094 C137.2656,242.375 137.375,242.5313 137.7188,242.6875 L136.5938,244 L135.4531,242.6875 C135.8125,242.5313 135.9219,242.375 135.9219,242.1094 C135.9219,241.9063 135.8125,241.7344 135.6563,241.6094 C135.5469,241.5313 135.4531,241.5 135.1094,241.5 L134.0156,241.5 C133.9375,241.5 133.9219,241.5 133.7813,241.5313 C133.4375,241.5625 133.2344,241.7813 133.2344,242.1094 C133.2344,242.4688 133.4844,242.6875 133.9219,242.7031 L135.8125,244.9219 L133.8281,247.2969 C133.3906,247.2969 133.125,247.5313 133.125,247.9063 C133.125,248.0938 133.2188,248.2656 133.375,248.3906 C133.4844,248.4688 133.625,248.5 133.9063,248.5 L135.25,248.5 C135.5,248.5 135.6563,248.4688 135.75,248.4219 C135.9219,248.3125 136.0313,248.1094 136.0313,247.9063 C136.0313,247.5469 135.7969,247.3281 135.3906,247.2969 L136.6094,245.8594 L137.8281,247.2969 C137.4063,247.3281 137.1563,247.5469 137.1563,247.9063 C137.1563,248.2969 137.4219,248.5 137.9531,248.5 L139.2813,248.5 C139.5469,248.5 139.7031,248.4688 139.7969,248.4219 C139.9688,248.3125 140.0781,248.1094 140.0781,247.9063 C140.0781,247.5313 139.8281,247.3125 139.375,247.2969 L137.375,244.9375 Z " fill="#000000"/><text fill="#000000" font-family="Helvetica" font-size="12" lengthAdjust="spacing" textLength="60" x="149.5" y="249.1543">exception</text><line style="stroke:#000000;stroke-width:1.0;" x1="123.5" x2="211.5" y1="260" y2="260"/><line style="stroke:#000000;stroke-width:1.0;" x1="123.5" x2="211.5" y1="268" y2="268"/></g><!--class interface--><g id="elem_interface"><rect codeLine="95" fill="#FFFFFF" height="46" id="interface" rx="2.5" ry="2.5" style="stroke:#000000;stroke-width:1.0;" width="83" x="248" y="230"/><ellipse cx="262" cy="245" fill="#B1B1B1" rx="10" ry="10" style="stroke:#181818;stroke-width:1.0;"/><path d="M262.7031,242.7031 L263.9063,242.7031 C264.1875,242.7031 264.3125,242.6875 264.4219,242.625 C264.5938,242.5156 264.7031,242.3125 264.7031,242.1094 C264.7031,241.9063 264.625,241.7344 264.4531,241.6094 C264.3281,241.5313 264.2344,241.5 263.9063,241.5 L260.2813,241.5 C259.9688,241.5 259.8906,241.5156 259.7813,241.5938 C259.6094,241.7031 259.5,241.9063 259.5,242.1094 C259.5,242.2969 259.5938,242.4688 259.75,242.5938 C259.8594,242.6875 259.9844,242.7031 260.2813,242.7031 L261.5,242.7031 L261.5,247.2969 L260.2813,247.2969 C259.9688,247.2969 259.8906,247.3125 259.7813,247.3906 C259.6094,247.4844 259.5,247.7031 259.5,247.9063 C259.5,248.0781 259.5938,248.2656 259.75,248.375 C259.8594,248.4688 260,248.5 260.2813,248.5 L263.9063,248.5 C264.4375,248.5 264.7031,248.2969 264.7031,247.9063 C264.7031,247.7031 264.625,247.5313 264.4531,247.4063 C264.3281,247.3281 264.2344,247.2969 263.9063,247.2969 L262.7031,247.2969 L262.7031,242.7031 Z " fill="#000000"/><text fill="#000000" font-family="Helvetica" font-size="12" font-style="italic" lengthAdjust="spacing" textLength="53" x="275" y="249.1543">interface</text><line style="stroke:#000000;stroke-width:1.0;" x1="249" x2="330" y1="260" y2="260"/><line style="stroke:#000000;stroke-width:1.0;" x1="249" x2="330" y1="268" y2="268"/></g><!--class metaclass--><g id="elem_metaclass"><rect codeLine="96" fill="#FFFFFF" height="46" id="metaclass" rx="2.5" ry="2.5" style="stroke:#000000;stroke-width:1.0;" width="91" x="366" y="230"/><ellipse cx="380" cy="245" fill="#CCCCCC" rx="10" ry="10" style="stroke:#181818;stroke-width:1.0;"/><path d="M377.7031,243.8281 L379.125,246.8438 L380.2188,246.8438 L381.5469,243.8281 L381.5469,247.2969 L381.125,247.2969 C380.8125,247.2969 380.7344,247.3125 380.625,247.3906 C380.4375,247.4844 380.3281,247.7031 380.3281,247.9063 C380.3281,248.0781 380.4219,248.2656 380.5781,248.375 C380.6875,248.4688 380.8438,248.5 381.125,248.5 L382.6875,248.5 C382.9219,248.5 383.1094,248.4688 383.1875,248.4219 C383.375,248.2969 383.4688,248.1094 383.4688,247.9063 C383.4688,247.5156 383.2188,247.2969 382.75,247.2969 L382.75,242.7031 C383.1406,242.6719 383.375,242.4531 383.375,242.1094 C383.375,241.9063 383.2656,241.7344 383.125,241.6094 C383.0156,241.5313 382.9063,241.5 382.5781,241.5 L381.25,241.5 L379.6406,245.0625 L377.9844,241.5 L376.6719,241.5 C376.6563,241.4844 376.6406,241.4844 376.625,241.4844 C376.4844,241.4844 376.2344,241.5469 376.1719,241.5781 C375.9844,241.7031 375.875,241.9063 375.875,242.0938 C375.875,242.4531 376.1094,242.6719 376.5,242.7031 L376.5,247.2969 C376.0313,247.2969 375.7656,247.5156 375.7656,247.9063 C375.7656,248.0938 375.875,248.2656 376.0313,248.375 C376.125,248.4688 376.2813,248.5 376.5781,248.5 L378.125,248.5 C378.3594,248.5 378.5469,248.4688 378.625,248.4219 C378.8125,248.2969 378.9219,248.1094 378.9219,247.9063 C378.9219,247.7031 378.8281,247.5313 378.6719,247.4063 C378.5469,247.3281 378.4531,247.2969 378.125,247.2969 L377.7031,247.2969 L377.7031,243.8281 Z " fill="#000000"/><text fill="#000000" font-family="Helvetica" font-size="12" lengthAdjust="spacing" textLength="61" x="393" y="249.1543">metaclass</text><line style="stroke:#000000;stroke-width:1.0;" x1="367" x2="456" y1="260" y2="260"/><line style="stroke:#000000;stroke-width:1.0;" x1="367" x2="456" y1="268" y2="268"/></g><!--class protocol--><g id="elem_protocol"><rect codeLine="97" fill="#FFFFFF" height="46" id="protocol" rx="2.5" ry="2.5" style="stroke:#000000;stroke-width:1.0;" width="81" x="492" y="230"/><ellipse cx="506" cy="245" fill="#F1F1F1" rx="10" ry="10" style="stroke:#181818;stroke-width:1.0;"/><path d="M505.8281,246.0938 L507,246.0938 C508.125,246.0938 508.7188,245.8906 509.25,245.3125 C509.625,244.8906 509.8438,244.3281 509.8438,243.7656 C509.8438,242.4375 508.7656,241.5 507.25,241.5 L504.4531,241.5 C504.1406,241.5 504.0469,241.5156 503.9375,241.5938 C503.7656,241.7031 503.6563,241.9063 503.6563,242.1094 C503.6563,242.2813 503.75,242.4688 503.9063,242.5938 C504.0156,242.6875 504.1406,242.7031 504.4531,242.7031 L504.625,242.7031 L504.625,247.2969 L504.4531,247.2969 C504.1563,247.2969 504.0469,247.3125 503.9375,247.3906 C503.7656,247.4844 503.6563,247.7031 503.6563,247.9063 C503.6563,248.0781 503.75,248.2656 503.9063,248.375 C504,248.4688 504.1719,248.5 504.4531,248.5 L507.0156,248.5 C507.25,248.5 507.4375,248.4688 507.5156,248.4219 C507.7031,248.3125 507.8125,248.1094 507.8125,247.9063 C507.8125,247.7031 507.7188,247.5313 507.5625,247.4063 C507.4375,247.3281 507.3438,247.2969 507.0156,247.2969 L505.8281,247.2969 L505.8281,246.0938 Z M505.8281,242.7031 L507.25,242.7031 C508.0781,242.7031 508.5781,243.125 508.5781,243.8125 C508.5781,244.4844 508.0781,244.9063 507.25,244.9063 L505.8281,244.9063 L505.8281,242.7031 Z " fill="#000000"/><text fill="#000000" font-family="Helvetica" font-size="12" lengthAdjust="spacing" textLength="51" x="519" y="249.1543">protocol</text><line style="stroke:#000000;stroke-width:1.0;" x1="493" x2="572" y1="260" y2="260"/><line style="stroke:#000000;stroke-width:1.0;" x1="493" x2="572" y1="268" y2="268"/></g><!--class stereotype--><g id="elem_stereotype"><rect codeLine="98" fill="#FFFFFF" height="46" id="stereotype" rx="2.5" ry="2.5" style="stroke:#000000;stroke-width:1.0;" width="97" x="7" y="336"/><ellipse cx="21" cy="351" fill="#AFAFAF" rx="10" ry="10" style="stroke:#181818;stroke-width:1.0;"/><path d="M23.7031,348.125 C23.7031,347.8125 23.6875,347.7188 23.625,347.6094 C23.5313,347.4375 23.3125,347.3438 23.1094,347.3438 C22.875,347.3438 22.7656,347.4375 22.6406,347.7344 C22.2344,347.4688 21.7031,347.3438 21.0938,347.3438 C19.5938,347.3438 18.4844,348.25 18.4844,349.4531 C18.4844,350.1406 18.8594,350.7813 19.4688,351.125 C19.8594,351.3438 20.2344,351.4688 21.0156,351.5938 C21.8281,351.7344 22.0313,351.7813 22.2813,351.9219 C22.5469,352.0625 22.7031,352.2969 22.7031,352.5625 C22.7031,353.0781 22.0156,353.4688 21.125,353.4688 C20.3281,353.4688 19.5781,353.125 19.4531,352.6875 C19.3594,352.3594 19.3594,352.3594 19.2813,352.2813 C19.1719,352.1719 19.0156,352.1094 18.8438,352.1094 C18.6563,352.1094 18.4688,352.2031 18.3594,352.3594 C18.2656,352.4688 18.25,352.6094 18.25,352.9063 L18.25,353.7031 C18.25,354.2344 18.4375,354.4844 18.8594,354.4844 C19.0469,354.4844 19.125,354.4375 19.3438,354.2031 C19.9219,354.5156 20.5625,354.6719 21.2031,354.6719 C22.8594,354.6719 23.9531,353.8281 23.9531,352.5781 C23.9531,351.9531 23.7344,351.4688 23.25,351.0781 C22.875,350.7813 22.4219,350.6094 21.375,350.4219 C20.4688,350.25 20.4219,350.2344 20.1719,350.1094 C19.9063,349.9688 19.7344,349.7031 19.7344,349.4531 C19.7344,348.9375 20.3281,348.5313 21.0938,348.5313 C21.8281,348.5313 22.4063,348.8594 22.5156,349.3438 C22.5938,349.7188 22.5938,349.7188 22.6875,349.8125 C22.7813,349.9219 22.9531,349.9844 23.1094,349.9844 C23.2969,349.9844 23.4688,349.8906 23.5938,349.7344 C23.6875,349.6094 23.7031,349.5156 23.7031,349.1875 L23.7031,348.125 Z " fill="#000000"/><text fill="#000000" font-family="Helvetica" font-size="12" lengthAdjust="spacing" textLength="67" x="34" y="355.1543">stereotype</text><line style="stroke:#000000;stroke-width:1.0;" x1="8" x2="103" y1="366" y2="366"/><line style="stroke:#000000;stroke-width:1.0;" x1="8" x2="103" y1="374" y2="374"/></g><!--class struct--><g id="elem_struct"><rect codeLine="99" fill="#FFFFFF" height="46" id="struct" rx="2.5" ry="2.5" style="stroke:#000000;stroke-width:1.0;" width="64" x="139.5" y="336"/><ellipse cx="153.5" cy="351" fill="#F1F1F1" rx="10" ry="10" style="stroke:#181818;stroke-width:1.0;"/><path d="M156.2031,348.125 C156.2031,347.8125 156.1875,347.7188 156.125,347.6094 C156.0313,347.4375 155.8125,347.3438 155.6094,347.3438 C155.375,347.3438 155.2656,347.4375 155.1406,347.7344 C154.7344,347.4688 154.2031,347.3438 153.5938,347.3438 C152.0938,347.3438 150.9844,348.25 150.9844,349.4531 C150.9844,350.1406 151.3594,350.7813 151.9688,351.125 C152.3594,351.3438 152.7344,351.4688 153.5156,351.5938 C154.3281,351.7344 154.5313,351.7813 154.7813,351.9219 C155.0469,352.0625 155.2031,352.2969 155.2031,352.5625 C155.2031,353.0781 154.5156,353.4688 153.625,353.4688 C152.8281,353.4688 152.0781,353.125 151.9531,352.6875 C151.8594,352.3594 151.8594,352.3594 151.7813,352.2813 C151.6719,352.1719 151.5156,352.1094 151.3438,352.1094 C151.1563,352.1094 150.9688,352.2031 150.8594,352.3594 C150.7656,352.4688 150.75,352.6094 150.75,352.9063 L150.75,353.7031 C150.75,354.2344 150.9375,354.4844 151.3594,354.4844 C151.5469,354.4844 151.625,354.4375 151.8438,354.2031 C152.4219,354.5156 153.0625,354.6719 153.7031,354.6719 C155.3594,354.6719 156.4531,353.8281 156.4531,352.5781 C156.4531,351.9531 156.2344,351.4688 155.75,351.0781 C155.375,350.7813 154.9219,350.6094 153.875,350.4219 C152.9688,350.25 152.9219,350.2344 152.6719,350.1094 C152.4063,349.9688 152.2344,349.7031 152.2344,349.4531 C152.2344,348.9375 152.8281,348.5313 153.5938,348.5313 C154.3281,348.5313 154.9063,348.8594 155.0156,349.3438 C155.0938,349.7188 155.0938,349.7188 155.1875,349.8125 C155.2813,349.9219 155.4531,349.9844 155.6094,349.9844 C155.7969,349.9844 155.9688,349.8906 156.0938,349.7344 C156.1875,349.6094 156.2031,349.5156 156.2031,349.1875 L156.2031,348.125 Z " fill="#000000"/><text fill="#000000" font-family="Helvetica" font-size="12" lengthAdjust="spacing" textLength="34" x="166.5" y="355.1543">struct</text><line style="stroke:#000000;stroke-width:1.0;" x1="140.5" x2="202.5" y1="366" y2="366"/><line style="stroke:#000000;stroke-width:1.0;" x1="140.5" x2="202.5" y1="374" y2="374"/></g><!--SRC=[jLHBRzim33vNlqBe9TkXDRhZ40HeDmmRqBK3Lc37Wf5fMuqiUXBTD2lstqV7yMl8YcPRUH3mVIB5XqZET4PXfRD0fIwOg_WsINBBHRqyDLGc9J0NkBwZY5N1i74Kaig1vxfq9v4t3fEbewNeHSQGR9dJgbOpVKLyKkTkepjrlRtKAMPGEuvAnPNr5GGeE-u3URw24lL7TFV8ri1-dQ_s1-gpDwFBYDzhz0O_OuoGuxcpkTS6lSGqqYh9aoaaKzGSQXpR5v3IslfSP-0YZcC3m_RUyaO_ggFp46ZzZgG8-iA1MQcZ2pdpGBLFM_fROHc5ff1Yc6fkgPl2cfMNAFMP-lcR6z5zFE35YNaTqK345mxIE13o9NoCdD3o3Wt_evT9s9KmqXM7LdTsS_t-MZTzZSIRQj8LCXiLUMcm9nxzrBHV1WQVNvl1vEcCF37-VRD41iR_MU1k_0vwymi46N5RoNPuVe4kROQNrk-fp-IzVLttqDZzCGNRLVxGii8oSf3frJlfy73HJeq-dXB72hny8x0blxFiiJ8s6DcLlRHOlNgj9zBIjx6WmBUonqkrypLeD7W_UzjsjjRp-T3ZYuLABSYYJ7lb7LRpnTJvZXzxbtbeDcKlBHQwBiUM3LRuOB0QajSzLiDNjD9ZLIB3E9SUgoeGao7NkUYm6b9hBqRZBBzH3__MN3Nu5m00]--></g></svg>